<?xml version="1.0" standalone="no"?>
<!DOCTYPE svg PUBLIC "-//W3C//DTD SVG 20010904//EN"
 "http://www.w3.org/TR/2001/REC-SVG-20010904/DTD/svg10.dtd">
<svg version="1.0" xmlns="http://www.w3.org/2000/svg"
 width="512.000000pt" height="512.000000pt" viewBox="0 0 512.000000 512.000000"
 preserveAspectRatio="xMidYMid meet">
<metadata>
Created by potrace 1.16, written by Peter Selinger 2001-2019
</metadata>
<g transform="translate(0.000000,512.000000) scale(0.100000,-0.100000)"
fill="#000000" stroke="none">
<path d="M1712 5101 c-195 -68 -335 -294 -367 -592 l-7 -66 -172 -6 c-132 -4
-188 -10 -245 -27 -259 -74 -449 -257 -537 -515 -26 -75 -28 -93 -32 -295 -4
-192 -2 -218 14 -248 25 -46 71 -72 130 -72 l49 0 139 -1192 c194 -1666 180
-1572 250 -1722 67 -145 156 -234 296 -300 147 -69 110 -67 1345 -64 l1110 3
80 25 c263 83 422 275 479 577 8 45 83 647 166 1340 82 692 153 1275 156 1296
6 37 6 37 53 37 58 0 108 30 133 80 15 29 18 63 18 197 0 182 -13 271 -58 385
-66 172 -211 331 -374 412 -134 66 -190 77 -419 83 l-196 5 -12 95 c-36 275
-140 457 -309 540 l-76 38 -780 2 c-736 2 -784 2 -834 -16z m1565 -310 c56
-35 108 -157 129 -303 l6 -48 -882 0 -882 0 7 43 c22 142 62 243 116 292 l39
35 718 0 c691 0 718 -1 749 -19z m806 -676 c215 -45 377 -249 377 -475 l0 -50
-1905 0 -1906 0 7 68 c13 145 61 250 155 341 50 48 163 107 229 120 25 5 704
9 1510 10 1238 1 1476 -2 1533 -14z m171 -857 c-2 -13 -72 -592 -154 -1288
-158 -1323 -167 -1387 -225 -1487 -34 -57 -107 -118 -174 -145 l-56 -23 -1105
0 -1105 0 -60 28 c-108 50 -159 120 -196 266 -14 56 -319 2601 -319 2662 0 5
667 9 1699 9 l1698 0 -3 -22z"/>
<path d="M1662 2849 c-29 -14 -49 -34 -63 -60 -19 -38 -19 -61 -17 -998 3
-958 3 -960 24 -988 65 -87 193 -87 258 0 l21 28 0 969 c0 963 0 969 -21 996
-53 71 -128 91 -202 53z"/>
<path d="M2495 2856 c-40 -18 -73 -56 -85 -97 -6 -21 -10 -389 -10 -964 l0
-931 23 -44 c28 -56 72 -82 138 -82 57 0 90 18 127 72 l22 33 0 956 c0 912 -1
958 -19 991 -35 67 -126 97 -196 66z"/>
<path d="M3310 2852 c-19 -10 -45 -34 -58 -52 l-22 -33 2 -971 c3 -953 3 -971
23 -998 31 -40 72 -60 125 -60 58 0 103 24 133 72 l22 35 0 955 c0 937 0 956
-20 989 -29 49 -67 73 -122 78 -35 3 -58 -1 -83 -15z"/>
</g>
</svg>
